<?xml version="1.0" encoding="UTF-8"?>
<svg width="40px" height="54px" viewBox="0 0 40 54" version="1.1" xmlns="http://www.w3.org/2000/svg" xmlns:xlink="http://www.w3.org/1999/xlink">
    <!-- Generator: Sketch 47.1 (45422) - http://www.bohemiancoding.com/sketch -->
    <title>Group 16</title>
    <desc>Created with Sketch.</desc>
    <defs></defs>
    <g id="Page-1" stroke="none" stroke-width="1" fill="none" fill-rule="evenodd">
        <g id="INSCRIPTION-:-SPORT" transform="translate(-640.000000, -501.000000)" fill="#FFFFFF">
            <g id="Group-14" transform="translate(344.000000, 240.000000)">
                <g id="Group-16" transform="translate(296.000000, 261.000000)">
                    <g id="Page-1">
                        <path d="M24.1521834,16.7092084 L23.0336961,16.8127804 L24.1521834,17.7857479 L24.1521834,16.7092084 Z M40,13.1262268 C40,15.3048941 38.3979768,17.0711012 36.4207299,17.0711012 C35.3276627,17.0711012 34.3511967,16.5294806 33.6946933,15.6783625 L28.4271925,16.1675879 L28.4271925,22.0401198 C28.4271925,22.9174355 27.9729451,23.7173768 27.2573122,24.1012024 C26.9699537,24.2547326 26.6582804,24.3308885 26.3510279,24.3308885 C25.8918071,24.3308885 25.4375597,24.1633456 25.0639938,23.8392262 L20.0904828,19.5202741 C19.2952736,22.9174355 17.0660355,24.5916462 17.0660355,24.5916462 C16.5642635,26.8860705 16.507897,28.3220657 16.5996306,29.2121756 C16.7460729,29.2956424 16.8875417,29.3925127 17.0212739,29.5088788 L25.1037819,36.551165 C25.603896,36.9886044 25.9365687,37.616738 26.0360389,38.3118889 L27.8060562,50.6997083 C28.0248907,52.2276998 27.0788184,53.6594303 25.6928666,53.9013013 C25.5591344,53.9238435 25.4259549,53.9360284 25.2944331,53.9360284 C24.0665285,53.9360284 22.9861714,52.9520945 22.7894414,51.5709315 L21.173603,40.2651348 L14.1300061,34.1275804 L16.9002518,40.7141498 C17.4180495,41.9448288 17.0616146,43.4070216 16.0536497,44.18503 L3.99785895,53.4937151 C3.55466385,53.8361119 3.0462605,53.9999993 2.54283067,53.9999993 C1.74154278,54.0006086 0.954070202,53.5832744 0.460034774,52.8064844 C-0.345121399,51.5398599 -0.0660521695,49.7943672 1.08338149,48.9066943 L11.3984433,40.9432267 L7.98108866,32.8183086 C7.75285977,32.2760788 7.69759853,31.6954664 7.78656912,31.1507995 L8.48672895,15.5309247 L8.49722858,15.5223953 C8.50109687,14.347767 9.30846349,13.348602 10.3893732,13.2480762 L24.2726529,11.9564725 L24.2726529,9.91366732 C24.1886559,9.84665015 24.1046588,9.774759 24.0267404,9.70043087 C24.3163093,9.28492441 24.5644322,8.83103539 24.7606096,8.34668401 C24.7683462,8.32901585 24.7738723,8.31073844 24.7821615,8.29246103 C24.8363175,8.15659895 24.8855,8.01708138 24.9313668,7.87695457 C24.9435243,7.841009 24.9551292,7.80567267 24.9661814,7.77033634 C25.0043117,7.64483146 25.0385736,7.51749884 25.0700725,7.38894772 C25.08223,7.3420357 25.0938349,7.29451443 25.1048871,7.24760241 C25.1314125,7.1269715 25.1540696,7.00451285 25.1761741,6.88205421 C25.1844633,6.82783122 25.1955155,6.77421749 25.2038047,6.7199945 C25.2225935,6.59448962 25.2364088,6.46837549 25.2480137,6.34104286 C25.2524346,6.28925687 25.2596186,6.23868937 25.2645921,6.18629412 C25.2761969,6.008394 25.2850387,5.82866613 25.2850387,5.64711052 C25.2850387,5.47286588 25.2728813,5.30288596 25.2607238,5.13290604 C25.2513294,5.02506932 25.2430402,4.91662336 25.2286723,4.81000513 C25.1618062,4.22573725 25.0297318,3.66157452 24.8335544,3.13335736 C25.2944331,2.89636028 25.8072574,2.75867045 26.3504753,2.75867045 C28.3260644,2.75867045 29.9280876,4.52548678 29.9280876,6.70415408 C29.9280876,8.02743858 29.3351345,9.19658359 28.4266399,9.91183958 L28.4266399,11.5696007 L33.3471001,11.1120562 C33.971552,9.95692386 35.1110387,9.18013392 36.4201773,9.18013392 C38.3979768,9.18074317 40,10.946341 40,13.1262268 L40,13.1262268 Z M14.1167434,5.64832901 C14.1167434,2.52898433 16.4100846,0 19.2383546,0 C22.0682823,0 24.3616235,2.52837508 24.3616235,5.64832901 C24.3616235,8.7664552 22.0688349,11.2948303 19.2383546,11.2948303 C16.409532,11.2948303 14.1167434,8.7664552 14.1167434,5.64832901 L14.1167434,5.64832901 Z" id="Fill-1"></path>
                    </g>
                </g>
            </g>
        </g>
    </g>
</svg>