<?xml version="1.0" encoding="UTF-8"?>
<svg width="52px" height="44px" viewBox="0 0 52 44" version="1.1" xmlns="http://www.w3.org/2000/svg" xmlns:xlink="http://www.w3.org/1999/xlink">
    <!-- Generator: Sketch 47.1 (45422) - http://www.bohemiancoding.com/sketch -->
    <title>Page 1</title>
    <desc>Created with Sketch.</desc>
    <defs></defs>
    <g id="Page-1" stroke="none" stroke-width="1" fill="none" fill-rule="evenodd">
        <g id="INSCRIPTION-:-SPORT" transform="translate(-635.000000, -267.000000)" fill="#FFFFFF">
            <g id="Group-14" transform="translate(344.000000, 240.000000)">
                <g id="Page-1" transform="translate(291.049261, 27.534653)">
                    <path d="M39.8177754,8.91260558 C42.3162859,8.91260558 44.3418904,6.91767184 44.3418904,4.45630279 C44.3418904,1.99493374 42.3162859,0 39.8177754,0 C37.3204004,0 35.2947959,1.99437447 35.2947959,4.45630279 C35.2947959,6.91767184 37.3204004,8.91260558 39.8177754,8.91260558 L39.8177754,8.91260558 Z M40.5189025,41.2196823 C35.7149044,41.2196823 31.8061917,37.3690742 31.8061917,32.6359303 C31.8061917,29.5850855 33.4343962,26.9083956 35.8755676,25.3854899 C36.6147315,27.3491043 37.6513778,29.5274802 39.0956429,31.7528352 C38.9520112,32.0173723 38.8623123,32.3149065 38.8623123,32.6359303 C38.8623123,33.6756225 39.71729,34.5190091 40.774374,34.5190091 C41.8286194,34.5190091 42.6847325,33.6761818 42.6847325,32.6359303 C42.6847325,31.5962382 41.8291871,30.7534109 40.774374,30.7534109 C40.7079514,30.7534109 40.6460705,30.7662742 40.5830543,30.7724262 C39.1910189,28.615862 38.2003575,26.4950914 37.4997981,24.5941159 C38.4422038,24.2496025 39.4561414,24.0521784 40.5183348,24.0521784 C45.3229007,24.0521784 49.2316134,27.9027865 49.2316134,32.6359303 C49.2316134,37.3690742 45.3229007,41.2196823 40.5189025,41.2196823 L40.5189025,41.2196823 Z M28.8540775,24.9207324 L27.5562827,26.716005 L28.0677933,19.509188 C28.076309,19.3833512 28.0734704,19.2586329 28.0632516,19.1350331 L29.2060604,18.9812325 L33.5740539,18.3917567 L28.8540775,24.9207324 Z M27.2553942,17.4667159 C27.1969196,17.4113477 27.1361742,17.3559795 27.0703193,17.3056447 L21.2796338,11.7453332 C22.4133592,10.5652631 25.5420325,9.47076198 29.2560192,9.93160454 L29.6812372,14.3101681 C29.8413326,15.4913568 30.4124532,16.2396667 31.4377452,16.4605803 L32.6980708,16.7323879 L30.1751486,17.0735456 L28.584981,17.2877479 L27.2553942,17.4667159 Z M22.2595086,27.6908213 L20.983287,25.6002515 L17.8756191,20.5108495 L20.0448553,20.2177894 L22.0312875,19.9498967 L22.7687483,20.5153237 L22.2595086,27.6908213 Z M21.9801932,31.630354 L21.0996684,31.630354 C21.0321104,30.9390902 20.895859,30.2674009 20.6977267,29.6225569 C19.8949787,27.0023538 18.0748868,24.8195037 15.6887837,23.5180709 L16.4915317,21.6601595 L20.7658524,28.6611633 L22.0426418,30.751733 L21.9801932,31.630354 Z M10.5753813,41.2196823 C5.77138322,41.2196823 1.86210279,37.3690742 1.86210279,32.6359303 C1.86210279,27.9027865 5.77138322,24.0521784 10.5753813,24.0521784 C11.5359539,24.0521784 12.4579218,24.2121311 13.3225507,24.4956835 L10.6162568,30.7573258 C10.6020639,30.7567665 10.5890065,30.7528516 10.5748136,30.7528516 C9.5194328,30.7528516 8.66445512,31.5956789 8.66445512,32.6353711 C8.66445512,33.6750632 9.51886509,34.5184498 10.5748136,34.5184498 C11.3571239,34.5184498 12.0281621,34.0542516 12.3233736,33.3903923 L19.2500553,33.3903923 C18.8600356,37.7711929 15.1210695,41.2196823 10.5753813,41.2196823 L10.5753813,41.2196823 Z M14.9513229,25.224978 C17.2613522,26.5543746 18.8975048,28.8954995 19.2233727,31.6309133 L12.185419,31.6309133 C12.185419,31.6292354 12.1848513,31.6281169 12.1842836,31.6269983 L14.9513229,25.224978 Z M17.4566459,16.4454799 L18.8719576,17.5304733 L20.0579127,18.4387358 L18.0720482,18.7066285 L16.872468,18.8682589 L16.2434406,17.8363967 L15.6337154,16.8380909 L15.5309592,16.6703084 L17.4566459,16.4454799 Z M40.5189025,22.2177566 C39.2506289,22.2177566 38.0396944,22.4487372 36.9127815,22.8519744 C36.3592601,21.032653 36.0805124,19.5282034 35.9414224,18.5422016 C35.9260941,18.4292281 35.9090627,18.315136 35.8971407,18.2161444 L36.3938907,17.5293547 L40.1686228,18.343659 C40.329286,18.3783341 40.4910845,18.3951123 40.6483414,18.3951123 C41.6759042,18.3951123 42.6007108,17.692663 42.8300673,16.6635971 C42.8845679,16.4158383 42.8857033,16.1697573 42.8567499,15.9309469 C43.4176516,15.6708841 43.9450581,15.2933735 44.4060421,14.7766034 C44.4985795,14.6731376 44.5916847,14.5724681 44.678545,14.4572574 C44.9714855,14.065765 44.8880315,13.5143199 44.4900638,13.2251747 C44.1108307,12.9488929 43.5902367,13.0204801 43.287645,13.3672305 C43.2734522,13.3834495 43.2541499,13.3918386 43.2405247,13.4097354 C42.8857033,13.8823228 42.4309642,14.1910425 41.9342142,14.3923815 C41.6974774,14.2279547 41.4249745,14.1060328 41.1246537,14.0411569 L34.1502839,12.5378258 L34.1502839,5.77339529 C34.1502839,3.62410167 32.7854988,2.03855719 30.4141563,1.75444551 C29.9934801,1.70411077 29.5841581,1.66887645 29.181081,1.64147197 C28.9931675,1.62916793 28.8092281,1.62133808 28.624721,1.61350823 C27.341119,1.55869928 26.1438096,1.61742315 25.0322251,1.76563101 C23.007756,2.03520154 21.2603315,2.59391721 19.7808681,3.2907738 C18.2014871,4.03572803 16.9252654,4.93224577 15.9277914,5.78849572 C15.3163632,6.31365489 14.8128006,6.82203582 14.4080203,7.27225216 C13.6262778,8.14136543 13.2169558,8.79012437 13.1539395,8.89191241 C13.1062515,8.96853308 12.7957118,9.5082334 12.6867107,10.2839478 C12.6236944,10.7302492 12.6339133,11.2548491 12.7962795,11.8185982 C12.8939264,12.1580781 13.0494801,12.5104213 13.2811075,12.867798 C13.5734804,13.3191329 13.9918858,13.7766198 14.5681158,14.224599 L12.2308361,14.0763912 L12.1689553,14.0724763 C10.9370153,13.994737 9.93897364,14.6904751 9.93897364,15.6267013 C9.93897364,16.5623683 10.9324736,17.2049752 12.1581687,17.0618009 L13.5831315,16.8956962 L14.2956129,18.0623437 L15.3544,19.7955368 L14.0537666,22.804436 C12.9631875,22.4297218 11.7965347,22.2160788 10.575949,22.2160788 C4.73473697,22.2177566 0,26.8821097 0,32.6359303 C0,38.3903103 4.73473697,43.0541041 10.5753813,43.0541041 C15.5502614,43.0541041 19.7110393,39.6660165 20.8390875,35.1073663 C20.9770421,34.5508878 21.0695795,33.9781902 21.1121581,33.3909515 L21.9977924,33.3909515 C22.2674566,34.4356771 23.1803412,35.244948 24.3316657,35.324365 C24.3935466,35.32828 24.4554274,35.3305171 24.5161728,35.3305171 C25.8735776,35.3305171 27.0186573,34.2952991 27.114601,32.9412945 L27.317275,30.0833995 L28.6156375,28.2886862 L34.4108648,20.2725983 C34.5942365,21.2138581 34.8650362,22.344712 35.2595976,23.6064363 C32.0855071,25.4045053 29.9429535,28.7707812 29.9429535,32.6364896 C29.9429535,38.3908696 34.6776905,43.0546634 40.5183348,43.0546634 C46.3595469,43.0546634 51.0942839,38.3903103 51.0942839,32.6359303 C51.0942839,26.8821097 46.3595469,22.2177566 40.5189025,22.2177566 L40.5189025,22.2177566 Z" id="Fill-1"></path>
                </g>
            </g>
        </g>
    </g>
</svg>