<?xml version="1.0" encoding="UTF-8"?>
<svg width="51px" height="53px" viewBox="0 0 51 53" version="1.1" xmlns="http://www.w3.org/2000/svg" xmlns:xlink="http://www.w3.org/1999/xlink">
    <!-- Generator: Sketch 47.1 (45422) - http://www.bohemiancoding.com/sketch -->
    <title>Page 1</title>
    <desc>Created with Sketch.</desc>
    <defs>
        <polygon id="path-1" points="0 53 51 53 51 0 0 0"></polygon>
    </defs>
    <g id="Page-1" stroke="none" stroke-width="1" fill="none" fill-rule="evenodd">
        <g id="INSCRIPTION-:-SPORT" transform="translate(-368.000000, -504.000000)">
            <g id="Group-14" transform="translate(344.000000, 240.000000)">
                <g id="Page-1" transform="translate(24.000000, 264.000000)">
                    <mask id="mask-2" fill="white">
                        <use xlink:href="#path-1"></use>
                    </mask>
                    <g id="Clip-2"></g>
                    <path d="M42.4494376,41.3704165 C39.2546327,40.6425637 36.0696395,42.6217177 35.3353958,45.7921494 C34.6022423,48.9614996 36.597837,52.121657 39.792642,52.8495098 C42.987992,53.5768219 46.1729852,51.5976678 46.9066838,48.4277769 C47.2588155,46.905018 46.9873579,45.3060129 46.1506363,43.9822509 C45.3144597,42.6563259 43.981156,41.7154166 42.4439866,41.365009 L42.4494376,41.3704165 Z M50.0262655,26.7701 C50.5920747,26.3185717 50.9431162,25.6550685 50.9970807,24.9369492 C51.0630372,23.5136887 50.0039166,22.2829361 48.5763114,22.1250364 L40.6070147,21.0921992 L38.3993778,15.6846746 C37.8946193,14.4447292 37.0317331,13.3799876 35.9197382,12.6240156 C31.5458916,9.64663257 26.7588626,7.31653021 21.7085525,5.70779164 L20.9018111,5.44823046 C19.971333,5.14649058 18.9487338,5.38658468 18.2526468,6.07009579 L11.395345,12.7862414 C10.3705654,13.7622996 10.2735384,15.3558971 11.1724009,16.4471355 C12.1268632,17.5389148 13.7932202,17.656258 14.8937681,16.7099412 C14.9373758,16.6720886 14.9793481,16.6331544 15.0202303,16.5931387 L20.787341,10.947683 L25.4969665,13.3864766 L20.672871,20.6974499 C19.0975449,23.3406479 19.3270301,26.6733054 21.2506722,29.0791131 L28.1957345,37.8555255 L23.3165843,48.3515308 C22.6690108,49.6682631 22.9808055,51.2505048 24.0797181,52.228726 C24.4879946,52.5704815 24.9747649,52.8057088 25.4969665,52.9154816 C25.619613,52.9425192 25.7433496,52.9625271 25.8681765,52.9749644 C27.2429075,53.1204268 28.5576779,52.3806774 29.1382046,51.136406 L34.834453,38.7423596 C35.3408467,37.6824847 35.2083885,36.4306428 34.4910428,35.4978448 L30.0866709,27.2946299 L34.1645306,20.2269952 L36.2189956,24.4016043 C36.5324256,25.2230072 37.2410498,25.832976 38.1050262,26.0238616 L38.3557701,26.0671218 L48.014863,27.3108525 C48.7322087,27.4206253 49.4631818,27.2243321 50.0262655,26.7701 L50.0262655,26.7701 Z M41.9812005,0.154263852 C38.7874858,-0.582241001 35.5975867,1.38934248 34.8551666,4.5570704 C34.1132916,7.72533908 36.1007099,10.8898225 39.2938795,11.6263273 C42.4870492,12.3622914 45.6774934,10.390708 46.4193684,7.22298004 C46.776951,5.69535433 46.5054935,4.08931952 45.6655013,2.76069072 C44.8320502,1.44395847 43.507468,0.506834458 41.9812005,0.154263852 L41.9812005,0.154263852 Z M4.04745716,30.2525459 L12.2238902,32.1073268 L15.9632456,27.0837365 C16.1305899,26.8609465 16.4483806,26.8149825 16.6729599,26.9815343 C16.7678066,27.0518321 16.8353984,27.1529528 16.8631983,27.2675923 C17.1880752,28.6146067 17.8062136,29.8751007 18.6723704,30.9609316 L19.9206391,32.5345213 C20.2133554,32.9038552 20.1801046,33.4310889 19.8443258,33.7620294 L15.8324226,37.7419675 C15.149963,38.5293031 14.1208226,38.9337859 13.0802353,38.8234724 C12.953228,38.8094129 12.827856,38.7877828 12.7035743,38.7585821 L2.49393488,36.4333465 C0.765982037,36.0407603 -0.314397313,34.3319825 0.0818871408,32.6172564 C0.105326249,32.5161357 0.133671217,32.4166373 0.166376949,32.3182203 C0.741452738,30.7494974 2.41271565,29.8599596 4.04745716,30.2525459 L4.04745716,30.2525459 Z" id="Fill-1" fill="#FFFFFF" mask="url(#mask-2)"></path>
                </g>
            </g>
        </g>
    </g>
</svg>