<?xml version="1.0" encoding="UTF-8"?>
<svg width="36px" height="51px" viewBox="0 0 36 51" version="1.1" xmlns="http://www.w3.org/2000/svg" xmlns:xlink="http://www.w3.org/1999/xlink">
    <!-- Generator: Sketch 47.1 (45422) - http://www.bohemiancoding.com/sketch -->
    <title>Page 1</title>
    <desc>Created with Sketch.</desc>
    <defs></defs>
    <g id="Page-1" stroke="none" stroke-width="1" fill="none" fill-rule="evenodd">
        <g id="INSCRIPTION-:-SPORT" transform="translate(-376.000000, -264.000000)" fill="#FFFFFF">
            <g id="Group-14" transform="translate(344.000000, 240.000000)">
                <g id="Page-1" transform="translate(32.231527, 24.089109)">
                    <path d="M19.658165,30.8400538 C18.9439423,32.5132343 17.5189363,33.7499083 15.8291061,34.2858004 C17.3269101,36.0414259 18.0583292,37.120551 18.4297708,38.1460306 C19.0310706,39.8067878 18.9869333,42.3309582 19.3365928,48.3618619 C19.5056905,51.7748565 24.7150449,51.4817816 24.488626,48.0721752 C24.1475646,42.1999498 24.3676781,39.4143273 23.2900388,36.4389686 C22.5981714,34.5291824 21.4809805,32.9435291 19.658165,30.8400538 L19.658165,30.8400538 Z M17.2546854,10.8799084 C15.1441173,10.9657415 13.3138501,12.4073985 12.7870679,14.4560987 L9.3311703,27.1627837 C8.8783325,28.7032617 9.24576165,30.3651483 10.3079242,31.5797995 C10.2282477,35.5507091 9.72267437,37.4802594 8.79235064,39.001538 C7.66426862,40.847514 5.36282081,42.6579145 1.64496515,46.4650636 C-0.760234111,48.9079184 2.97997684,52.4513567 5.36396724,49.9887377 C8.86629504,46.4018182 11.3872832,44.6077937 13.2118183,41.6233999 C14.5720513,39.3979513 15.2312456,36.7947241 15.4232717,32.9971748 C17.016229,32.4962935 18.2314393,31.2172676 18.6332612,29.6180617 L21.3697772,19.5603439 C22.7569513,21.0387059 23.8529334,21.9597175 25.2796591,22.4933508 C26.9866856,23.1320167 28.6512944,23.0715948 31.254252,23.0185138 L28.4065327,49.569172 C28.2620832,50.917655 30.3153301,51.1311083 30.4592064,49.7820607 L33.3315737,22.9914086 L33.4622662,22.9914086 C35.7161373,22.9981849 35.9454223,19.7489508 33.7121868,19.4490997 L33.8635149,18.0356773 C33.9386057,17.4263753 33.4519483,16.8910479 32.8294397,16.8972595 C32.2997914,16.9040358 31.8601375,17.3015785 31.8119877,17.8210945 L31.6388775,19.4361118 C29.0129915,19.4507938 27.3569808,19.4654758 26.5630816,19.1684481 C22.505311,17.6370052 22.6434552,12.3334239 18.8826086,11.0905383 C18.4997027,10.9736471 18.0967344,10.9019313 17.6805822,10.8827318 C17.5372791,10.8759555 17.3951224,10.8759555 17.2546854,10.8827318 L17.2546854,10.8799084 Z M8.85139151,9.94590887 C6.55796868,9.91259208 3.35543096,12.0064676 2.36491993,15.6475975 L1.78712182,17.7759192 L0.22855729,23.503019 C-0.491970705,26.0492123 0.473892199,26.4800718 3.3709077,27.2452286 C6.26906962,28.0098207 7.32263403,28.1114651 7.99042648,25.5522839 L11.0886395,14.1556829 C11.869928,11.283098 10.6358017,9.97075529 8.85139151,9.94534418 L8.85139151,9.94590887 Z M13.9375052,0 C13.4949852,0.00677629628 13.0478795,0.0824449381 12.6649737,0.300415802 C12.126154,0.606478517 11.7363696,1.12542987 11.4916079,1.68899185 C11.2474194,2.25255382 11.135643,2.8618558 11.0525272,3.46889901 C10.9694114,4.07650691 10.9115169,4.68919703 10.7647745,5.28494641 C10.6180321,5.88069579 10.3772829,6.46571604 9.96972892,6.92876295 C9.84648825,7.06880641 9.70777085,7.19699135 9.54899101,7.29581233 C9.39021118,7.39463332 9.20964927,7.46465505 9.02220881,7.4810311 C8.79235064,7.50361875 8.55561391,7.43642048 8.36645382,7.30767085 C8.17786694,7.17722715 8.03685668,6.98071456 7.97724259,6.76104962 C7.84425732,7.16762739 7.88380897,7.62559209 8.08328689,8.00506468 C8.28219159,8.38453727 8.6381565,8.68043554 9.05201586,8.80862048 C9.32830424,8.89445356 9.62637469,8.90687677 9.9135541,8.86396023 C10.2001603,8.82217307 10.4764487,8.72561085 10.7366871,8.59911998 C12.4953028,7.74078912 13.7827378,6.65884048 14.9217109,5.59326789 C15.19456,5.33407456 15.4433342,5.04947011 15.6594353,4.7434074 C15.6107122,5.00768295 15.5814784,5.27817011 15.5814784,5.55656295 C15.5826248,8.07113357 17.6456162,10.0882111 20.1820811,10.0882111 C22.7351692,10.0882111 24.804466,8.07113357 24.804466,5.55656295 C24.804466,3.05667432 22.7351692,1.02435012 20.1820811,1.02435012 C18.5902703,1.02435012 17.1847535,1.82508247 16.3581812,3.03860419 C16.3753776,2.9008195 16.3839757,2.76247012 16.3811097,2.62299135 C16.3736579,2.18761432 16.2647476,1.75393135 16.0589643,1.36824716 C15.8531811,0.982562961 15.5499517,0.646571604 15.1813761,0.406013086 C14.8128005,0.165454568 14.3788787,0.0208935802 13.9375052,0 L13.9375052,0 Z" id="Fill-1"></path>
                </g>
            </g>
        </g>
    </g>
</svg>