<?xml version="1.0" encoding="UTF-8"?>
<svg width="62px" height="57px" viewBox="0 0 62 57" version="1.1" xmlns="http://www.w3.org/2000/svg" xmlns:xlink="http://www.w3.org/1999/xlink">
    <!-- Generator: Sketch 47.1 (45422) - http://www.bohemiancoding.com/sketch -->
    <title>Page 1</title>
    <desc>Created with Sketch.</desc>
    <defs>
        <polygon id="path-1" points="0.050637122 0.122691347 10.3146938 0.122691347 10.3146938 10.2341927 0.050637122 10.2341927"></polygon>
        <polygon id="path-3" points="8.61150313 0.0974995986 8.61150313 8.47878673 0.104075356 8.47878673 0.104075356 0.0974995986 8.61150313 0.0974995986"></polygon>
    </defs>
    <g id="Page-1" stroke="none" stroke-width="1" fill="none" fill-rule="evenodd">
        <g id="INSCRIPTION-:-SPORT" transform="translate(-496.000000, -382.000000)">
            <g id="Group-14" transform="translate(344.000000, 240.000000)">
                <g id="Page-1" transform="translate(152.000000, 142.000000)">
                    <g id="Group-3" transform="translate(24.482759, 0.000000)">
                        <mask id="mask-2" fill="white">
                            <use xlink:href="#path-1"></use>
                        </mask>
                        <g id="Clip-2"></g>
                        <path d="M0.185445492,4.03191632 C0.828231955,1.31315695 3.5866481,-0.377781489 6.34643286,0.255449677 C9.10621761,0.888680844 10.8224438,3.60586724 10.1798854,6.32485131 C9.53732705,9.04361068 6.7789109,10.7345491 4.01889805,10.101318 C1.2591133,9.46808678 -0.457112872,6.75090039 0.185445492,4.03191632" id="Fill-1" fill="#FFFFFF" mask="url(#mask-2)"></path>
                    </g>
                    <path d="M4.37216405,18.0764995 C3.41355215,18.0764995 2.63612202,17.3103657 2.63612202,16.366217 C2.63612202,15.421829 3.41355215,14.656413 4.37216405,14.656413 C4.45109713,14.656413 4.52833012,14.6633518 4.60434875,14.673401 C5.45245434,14.7856173 6.1072346,15.4995909 6.1072346,16.366217 C6.1072346,16.6746325 6.02295836,16.9634281 5.87820723,17.2132232 C5.57923301,17.7283656 5.01722948,18.0764995 4.37216405,18.0764995 M6.98424184,12.918854 C6.25490018,12.3814597 5.35263435,12.0594059 4.37216405,12.0594059 C1.95778327,12.0594059 0,13.987661 0,16.366217 C0,18.744773 1.95778327,20.6732673 4.37216405,20.6732673 C6.5907908,20.6732673 8.41912381,19.0431393 8.70158281,16.9332805 C8.72659852,16.7473698 8.74384236,16.5590664 8.74384236,16.366217 C8.74384236,14.9538222 8.05020274,13.7041292 6.98424184,12.918854" id="Fill-4" fill="#FFFFFF"></path>
                    <path d="M4.9823003,15.5219515 C4.92496943,15.514628 4.86843483,15.5049505 4.80951143,15.5049505 C4.08491294,15.5049505 3.49753695,16.0832475 3.49753695,16.7967681 C3.49753695,17.5102888 4.08491294,18.0891089 4.80951143,18.0891089 C5.29629298,18.0891089 5.71618852,17.8244158 5.94259237,17.4362689 C6.05274196,17.2469034 6.12068966,17.0305979 6.12068966,16.7967681 C6.12042423,16.1413126 5.62382212,15.6059105 4.9823003,15.5219515" id="Fill-6" fill="#FFFFFF"></path>
                    <path d="M54.2118227,12.5356211 C50.0286169,11.4988727 46.2051511,11.1984973 43.1690811,11.1980198 C39.8409475,11.1989749 37.4566811,11.5566555 36.5629711,11.7147226 L25.5166298,11.7147226 C24.6217199,11.556178 22.2381734,11.1987361 18.9117197,11.1982586 C15.8754097,11.1982586 12.0509839,11.4988727 7.86945813,12.5353824 C8.87260195,13.4111984 9.50952627,14.691972 9.50952627,16.1212618 C9.50952627,16.2721658 9.50064677,16.4209208 9.48696754,16.5682432 C13.0351688,15.7437631 16.299706,15.4956789 18.9117197,15.4961565 C20.2693237,15.4961565 21.4466977,15.5630127 22.3982444,15.6470604 L25.1828085,27.4507595 C25.1484904,27.5677578 25.1187321,27.6871439 25.0978532,27.8103503 L20.7567364,53.0841389 C20.4550733,54.8388751 21.6406069,56.5047881 23.4040281,56.8046858 C23.5888177,56.8364425 23.7726474,56.8512464 23.9535973,56.8512464 C25.5034305,56.8512464 26.8737538,55.7409561 27.1437386,54.1703132 L30.8714499,32.4664063 L31.208631,32.4664063 L34.9365822,54.1703132 C35.2068071,55.7416724 36.5771303,56.8512464 38.1264835,56.8514851 C38.3076734,56.8514851 38.4910231,56.8364425 38.6760528,56.8049246 C40.439474,56.5052656 41.6252476,54.8395914 41.3233445,53.0846164 L36.9829476,27.8110666 C36.9615888,27.6883377 36.9325504,27.5694292 36.8982323,27.4526697 L39.6835163,15.6472992 C40.6343431,15.5630127 41.8124371,15.496634 43.1686012,15.4968728 C45.7803749,15.4963952 49.044912,15.7447182 52.5943133,16.5689595 C52.580154,16.4216372 52.5712745,16.2726434 52.5712745,16.1217394 C52.5722345,14.6922108 53.2089188,13.4114372 54.2118227,12.5356211" id="Fill-8" fill="#FFFFFF"></path>
                    <g id="Group-12" transform="translate(52.463054, 12.059406)">
                        <mask id="mask-4" fill="white">
                            <use xlink:href="#path-3"></use>
                        </mask>
                        <g id="Clip-11"></g>
                        <path d="M4.35783651,5.95213166 C3.72969778,5.95213166 3.18238051,5.61339738 2.89194315,5.11193096 C2.75038743,4.86888039 2.66909333,4.58811507 2.66909333,4.28802676 C2.66909333,3.44503238 3.30573958,2.75056891 4.13096925,2.64091678 C4.20517375,2.63113888 4.28079617,2.62415467 4.35783651,2.62415467 C5.28988284,2.62415467 6.04657968,3.36890447 6.04657968,4.28779395 C6.04657968,5.20668344 5.28988284,5.95213166 4.35783651,5.95213166 M4.35783651,0.0974995986 C3.40333977,0.0974995986 2.52517441,0.410857907 1.81550526,0.933742574 C0.778296498,1.69804817 0.104075356,2.91376666 0.104075356,4.28802676 C0.104075356,4.47566925 0.120617761,4.65888841 0.145195047,4.8397795 C0.420035282,6.8926722 2.19858008,8.47878673 4.35783651,8.47878673 C6.70685794,8.47878673 8.61159766,6.60236179 8.61159766,4.28802676 C8.61159766,1.97369173 6.70685794,0.0974995986 4.35783651,0.0974995986" id="Fill-10" fill="#FFFFFF" mask="url(#mask-4)"></path>
                    </g>
                    <path d="M57.2721675,15.5049505 C57.2121763,15.5049505 57.155636,15.514627 57.0985648,15.5222113 C56.4572435,15.6066849 55.9605911,16.1417712 55.9605911,16.7968989 C55.9605911,17.030705 56.0282803,17.2467271 56.138441,17.4358119 C56.3651332,17.824181 56.7853367,18.0891089 57.2724329,18.0891089 C57.9965739,18.0891089 58.5837438,17.5103474 58.5837438,16.7968989 C58.5837438,16.0834505 57.9963084,15.5049505 57.2721675,15.5049505" id="Fill-13" fill="#FFFFFF"></path>
                </g>
            </g>
        </g>
    </g>
</svg>