<?xml version="1.0" encoding="UTF-8"?>
<svg width="71px" height="41px" viewBox="0 0 71 41" version="1.1" xmlns="http://www.w3.org/2000/svg" xmlns:xlink="http://www.w3.org/1999/xlink">
    <!-- Generator: Sketch 47.1 (45422) - http://www.bohemiancoding.com/sketch -->
    <title>Fill 1</title>
    <desc>Created with Sketch.</desc>
    <defs></defs>
    <g id="Page-1" stroke="none" stroke-width="1" fill="none" fill-rule="evenodd">
        <g id="INSCRIPTION-:-SPORT" transform="translate(-625.000000, -387.000000)" fill="#FFFFFF">
            <g id="Group-14" transform="translate(344.000000, 240.000000)">
                <path d="M282.657503,180.475436 C281.738156,180.475436 281,181.230875 281,182.144524 C281,183.057889 281.738156,183.801933 282.657503,183.801933 C284.466949,183.801933 285.290003,184.487669 286.42169,185.43655 C287.706459,186.521135 289.297868,187.853766 292.315352,187.853766 C295.338819,187.853766 296.93564,186.515057 298.220409,185.43655 C299.352001,184.487669 300.169357,183.801933 301.984501,183.801933 C303.793947,183.801933 304.611303,184.487669 305.748688,185.43655 C307.033647,186.515057 308.618977,187.853766 311.642349,187.853766 C314.665816,187.853766 316.257224,186.515057 317.535916,185.43655 C318.667603,184.487669 319.490752,183.801933 321.300103,183.801933 C323.115436,183.801933 323.9383,184.487669 325.075685,185.43655 C326.354661,186.521135 327.957465,187.853766 330.980837,187.853766 C334.004304,187.853766 335.601315,186.515057 336.88599,185.43655 C338.017677,184.487669 338.834653,183.801933 340.650176,183.801933 C342.46551,183.801933 343.282486,184.487669 344.425759,185.43655 C345.710718,186.521135 347.301651,187.853766 350.330911,187.853766 C351.244561,187.853766 351.988509,187.109722 351.988509,186.196263 C351.988509,185.282803 351.244561,184.538854 350.330911,184.538854 C348.509785,184.538854 347.698791,183.852929 346.555329,182.904047 C345.276352,181.819652 343.673548,180.475436 340.650176,180.475436 C337.620822,180.475436 336.029793,181.825635 334.745024,182.904047 C333.613337,183.852929 332.796171,184.538854 330.980837,184.538854 C329.165694,184.538854 328.342735,183.852929 327.205255,182.904047 C325.920391,181.819652 324.323474,180.475436 321.300103,180.475436 C318.276636,180.475436 316.691305,181.831523 315.406536,182.904047 C314.274849,183.852929 313.451795,184.538854 311.642349,184.538854 C309.832998,184.538854 309.015642,183.852929 307.878352,182.904047 C306.599281,181.825635 305.007968,180.475436 301.984501,180.475436 C298.961129,180.475436 297.364308,181.831523 296.079443,182.904047 C294.947851,183.852929 294.13059,184.538854 292.315352,184.538854 C290.506001,184.538854 289.70023,183.852929 288.562656,182.904047 C287.277981,181.825635 285.675082,180.475436 282.657503,180.475436 M282.669089,172.221821 C281.749742,172.221821 281.011491,172.966055 281.011491,173.87942 C281.011491,174.792974 281.749742,175.537208 282.669089,175.537208 C284.47844,175.537208 285.301589,176.228261 286.433276,177.18322 C287.71795,178.261633 289.309263,179.600626 292.326842,179.600626 C295.350214,179.600626 296.94732,178.255935 298.231995,177.18322 C299.363682,176.228261 300.180943,175.537208 301.996086,175.537208 C303.805437,175.537208 304.622793,176.228261 305.760273,177.18322 C307.044947,178.255935 308.630373,179.600626 311.65384,179.600626 C314.677307,179.600626 316.26862,178.255935 317.547406,177.18322 C318.679094,176.228261 319.502242,175.537208 321.311688,175.537208 C323.126927,175.537208 323.949791,176.228261 325.087271,177.18322 C326.366152,178.261633 327.968956,179.600626 330.992423,179.600626 C334.01589,179.600626 335.612616,178.255935 336.89748,177.18322 C338.029167,176.228261 338.846333,175.537208 340.661572,175.537208 C342.477001,175.537208 343.293977,176.228261 344.437344,177.18322 C345.722019,178.261633 347.313047,179.600626 350.342497,179.600626 C351.255956,179.600626 352,178.844902 352,177.931537 C352,177.017888 351.255956,176.273749 350.342497,176.273749 C348.521275,176.273749 347.710187,175.588108 346.566819,174.639322 C345.287938,173.554642 343.685039,172.221821 340.661572,172.221821 C337.632407,172.221821 336.041284,173.56072 334.756515,174.639322 C333.624923,175.588108 332.807567,176.273749 330.992423,176.273749 C329.177184,176.273749 328.354225,175.588108 327.216746,174.639322 C325.931976,173.554642 324.334965,172.221821 321.311688,172.221821 C318.288126,172.221821 316.702796,173.566608 315.417932,174.639322 C314.286339,175.588108 313.463096,176.273749 311.65384,176.273749 C309.844584,176.273749 309.027228,175.588108 307.889748,174.639322 C306.610867,173.56072 305.019553,172.221821 301.996086,172.221821 C298.972715,172.221821 297.375893,173.566608 296.090934,174.639322 C294.959342,175.588108 294.142176,176.273749 292.326842,176.273749 C290.517491,176.273749 289.711626,175.588108 288.574241,174.639322 C287.289472,173.56072 285.686668,172.221821 282.669089,172.221821 M326.480109,152.469005 C323.091695,152.469005 320.344764,155.215841 320.344764,158.60416 C320.344574,161.992669 323.091315,164.7396 326.479824,164.73979 L326.480109,164.73979 C329.868523,164.739885 332.615454,161.993049 332.615549,158.604635 L332.615549,158.60416 C332.615454,155.215841 329.868523,152.469005 326.480109,152.469005 M317.167645,147.012558 C316.888166,147.043611 316.609731,147.12718 316.350479,147.277508 L308.98326,151.329341 C307.344844,152.207569 306.762904,154.272943 307.694027,155.887712 L310.594895,160.894979 C311.148916,161.867506 311.015966,163.11486 310.237925,163.933925 L304.229167,170.230614 C306.663192,170.737343 308.209682,171.998846 309.294172,172.923986 C310.337353,173.78455 310.652254,174.052064 311.642349,174.052064 C312.63254,174.052064 312.941933,173.78455 313.979226,172.923986 C315.369975,171.751179 317.487199,170.011722 321.288612,170.011722 C323.038895,170.011722 324.422332,170.368312 325.536166,170.87504 C325.995887,169.631486 325.697795,168.210063 324.695829,167.237726 L318.698561,161.53969 C316.954071,159.889594 315.348893,158.096387 313.875525,156.19853 C313.221317,155.349646 313.451225,154.12214 314.358987,153.574007 L318.525917,151.041599 C319.521995,150.440382 319.874312,149.160551 319.320196,148.140921 C318.869402,147.340849 318.006463,146.920253 317.167645,147.012558" id="Fill-1"></path>
            </g>
        </g>
    </g>
</svg>