<?xml version="1.0" encoding="UTF-8"?>
<svg width="50px" height="50px" viewBox="0 0 50 50" version="1.1" xmlns="http://www.w3.org/2000/svg" xmlns:xlink="http://www.w3.org/1999/xlink">
    <!-- Generator: Sketch 47.1 (45422) - http://www.bohemiancoding.com/sketch -->
    <title>Fill 1</title>
    <desc>Created with Sketch.</desc>
    <defs></defs>
    <g id="Page-1" stroke="none" stroke-width="1" fill="none" fill-rule="evenodd">
        <g id="INSCRIPTION-:-SPORT" transform="translate(-502.000000, -265.000000)" fill="#FFFFFF">
            <g id="Group-14" transform="translate(344.000000, 240.000000)">
                <path d="M175.709621,51.8508627 L172.275938,56.3870434 L160.758205,56.3870434 C159.230169,56.3870434 158,57.6266517 158,59.1261965 C158,60.6320953 159.230169,61.8208715 160.758205,61.8208715 L173.545392,61.8272255 C174.423163,61.8647719 175.302692,61.4794883 175.8738,60.7256724 L180.359987,54.8072072 L175.709621,51.8508627 Z M177.503862,30.6186718 L169.344173,35.5222295 C166.843377,37.0263954 168.866881,40.2929307 171.367677,38.7887648 L178.943358,34.2335221 L184.344843,35.3997705 L177.883818,45.0595885 C176.399759,47.6375809 175.526093,49.9833634 177.670972,51.402039 L188.59473,58.3417659 L182.31782,70.1076471 C181.60716,71.4408326 182.15071,73.0899852 183.498149,73.7877703 C184.851452,74.487866 186.493827,73.9674153 187.204487,72.6342299 L194.599571,58.7744158 C195.348344,57.498994 194.954315,55.9156919 193.707142,55.1237521 L185.909233,50.1641637 L191.782145,41.3863969 L193.976278,46.1351479 C194.431874,47.1205961 195.21231,47.5151219 195.947597,47.4827743 L205.104086,47.4827743 C208.034093,47.4827743 208.034093,43.6570866 205.104086,43.6570866 L197.098608,43.6570866 L194.78955,38.6593742 C194.367376,37.7917639 194.00325,37.4191883 193.284968,36.860036 L187.58503,32.6762136 C186.7184,32.0685399 186.274531,31.9131556 185.278903,31.6844115 L179.241812,30.3818408 C179.018412,30.333897 178.806738,30.313102 178.608551,30.3142573 C178.172891,30.314835 177.802902,30.4303623 177.503862,30.6186718 Z M194.369721,25 C191.657838,25 189.450805,27.1742244 189.450805,29.8463716 C189.451978,32.5346927 191.658424,34.7118052 194.369721,34.7118052 C197.099194,34.7118052 199.289223,32.5346927 199.289223,29.8463716 C199.289223,27.1742244 197.099194,25 194.369721,25 L194.369721,25 Z" id="Fill-1"></path>
            </g>
        </g>
    </g>
</svg>