<?xml version="1.0" encoding="UTF-8"?>
<svg width="51px" height="51px" viewBox="0 0 51 51" version="1.1" xmlns="http://www.w3.org/2000/svg" xmlns:xlink="http://www.w3.org/1999/xlink">
    <!-- Generator: Sketch 47.1 (45422) - http://www.bohemiancoding.com/sketch -->
    <title>Group 13</title>
    <desc>Created with Sketch.</desc>
    <defs>
        <polygon id="path-1" points="0.348777778 0.000529411765 9.55266667 0.000529411765 9.55266667 8.77018235 0.348777778 8.77018235 0.348777778 0.000529411765"></polygon>
        <polygon id="path-3" points="50.84547 0.228330788 50.84547 42 0.000102 42 0.000102 0.228330788"></polygon>
    </defs>
    <g id="Page-1" stroke="none" stroke-width="1" fill="none" fill-rule="evenodd">
        <g id="INSCRIPTION-:-SPORT" transform="translate(-502.000000, -505.000000)">
            <g id="Group-14" transform="translate(344.000000, 240.000000)">
                <g id="Group-13" transform="translate(158.000000, 265.000000)">
                    <g id="Group-5" transform="translate(28.000000, 0.000000)">
                        <mask id="mask-2" fill="white">
                            <use xlink:href="#path-1"></use>
                        </mask>
                        <g id="Clip-4"></g>
                        <path d="M4.95766667,8.77018235 C7.48655556,8.77018235 9.55266667,6.81559412 9.55266667,4.39194706 C9.55266667,1.9683 7.48655556,0.000476470588 4.95766667,0.000476470588 C2.41433333,0.000476470588 0.348777778,1.96882941 0.348777778,4.39194706 C0.348777778,6.81506471 2.41433333,8.77018235 4.95766667,8.77018235" id="Fill-3" fill="#FFFFFF" mask="url(#mask-2)"></path>
                    </g>
                    <g id="Group-8" transform="translate(0.000000, 9.000000)">
                        <mask id="mask-4" fill="white">
                            <use xlink:href="#path-3"></use>
                        </mask>
                        <g id="Clip-7"></g>
                        <path d="M9.558012,8.31706265 C9.106662,8.94402651 8.410002,9.35390602 7.546062,9.50723133 C6.333792,9.71217108 4.979232,9.36655663 3.843972,8.54730361 C2.695962,7.74120723 1.921782,6.58949639 1.715742,5.38617108 L1.664232,4.78501446 C1.664232,4.1580506 1.832022,3.59484578 2.179842,3.10855663 C3.302352,1.54747229 5.868672,1.4447494 7.906632,2.87831566 C9.931842,4.3113759 10.680012,6.75547229 9.558012,8.31706265 M50.239182,37.1118578 L43.377132,29.0746771 C43.377132,29.0746771 41.236152,16.660894 41.236152,16.6350867 C41.236152,16.6224361 40.913322,15.2273277 40.913322,15.2273277 C40.926582,15.2399783 40.049382,11.3112072 39.378732,8.23964096 C40.448712,8.85395422 41.416692,9.40450843 41.467692,9.42980964 C41.519712,9.54518313 45.105522,16.3147735 45.105522,16.3147735 C45.375822,16.8137133 45.827682,17.1851349 46.369812,17.3516169 C46.924692,17.5175928 47.505582,17.4669904 48.008442,17.1977855 C48.511302,16.9417373 48.884622,16.493906 49.052412,15.9433518 C49.233462,15.4059542 49.181442,14.8300988 48.911142,14.330653 L44.977002,6.89614699 C44.977002,6.89614699 44.821452,6.62744819 44.615412,6.42250843 C44.331342,6.14115904 43.712712,5.79554458 43.712712,5.79554458 L36.076482,1.4827012 C35.109522,0.996412048 34.038522,0.82993012 32.967012,1.06067711 C32.529432,1.15024337 32.115822,1.3167253 31.652232,1.57277349 C31.600212,1.5854241 29.910582,2.32776145 28.929852,4.60588193 L25.010502,12.4376169 C25.010502,12.4376169 19.038402,13.5893277 18.831852,13.6277855 C18.780342,13.6404361 18.728322,13.6535928 18.690072,13.678894 L13.118322,9.76277349 C11.866782,8.89241205 11.712252,6.28183373 11.699502,6.17911084 C11.544462,4.38727952 10.512732,2.69817108 8.861862,1.53330361 C7.365522,0.483809639 5.560122,0.0359783133 3.909252,0.304677108 C2.619462,0.52226747 1.522962,1.18768916 0.826812,2.16026747 C0.283662,2.91626747 0.000102,3.82508675 0.000102,4.79715904 C0.000102,4.80980964 0.077622,5.64171325 0.077622,5.64171325 C0.361692,7.29236386 1.380672,8.82814699 2.876502,9.89029157 C4.385592,10.9524361 6.178242,11.4002675 7.829112,11.1189181 L8.216202,11.0425084 C8.254962,11.0167012 10.731522,10.2617133 11.943792,11.0809663 C11.943792,11.0936169 16.109982,14.0118578 17.219232,14.792147 C17.102952,14.9712795 16.896912,15.3680024 16.909662,15.7773759 C16.909662,15.9054 16.922412,16.0334241 16.948422,16.1614482 C17.167722,17.313159 18.302982,18.0807976 19.463742,17.8505566 L26.866392,16.4169904 C26.866392,16.4169904 27.499302,16.2252072 27.770112,16.0329181 C28.118442,15.7900265 28.375482,15.2779301 28.375482,15.2779301 L30.323682,11.3876169 C30.323682,11.3876169 31.664472,17.6714241 31.689972,17.7862916 C31.535952,17.9401229 25.615362,24.1723157 25.615362,24.1723157 L25.512852,24.3003398 C24.931962,24.8250867 24.609642,25.5158096 24.609642,26.2460024 L24.609642,39.4537373 C24.609642,40.8609904 25.770912,42.0000506 27.189732,42.0000506 C28.595802,42.0000506 29.756052,40.8609904 29.756052,39.4537373 L29.756052,28.421906 C30.298182,27.8587012 34.838202,23.1106771 36.050982,21.8562434 C36.180012,22.5985807 37.354032,29.2912554 37.354032,29.2912554 C37.457052,29.8802675 37.740612,30.4181711 38.166462,30.8528458 C38.166462,30.8654964 46.317792,40.413159 46.317792,40.413159 C46.769652,40.9252554 47.388792,41.2450627 48.072192,41.3088217 C48.755592,41.3604361 49.412982,41.1428458 49.942362,40.7076651 C50.535492,40.2087253 50.845572,39.4790386 50.845572,38.7620024 C50.845572,38.1740024 50.651772,37.598147 50.239182,37.1118578" id="Fill-6" fill="#FFFFFF" mask="url(#mask-4)"></path>
                    </g>
                </g>
            </g>
        </g>
    </g>
</svg>