<?xml version="1.0" encoding="UTF-8"?>
<svg width="54px" height="43px" viewBox="0 0 54 43" version="1.1" xmlns="http://www.w3.org/2000/svg" xmlns:xlink="http://www.w3.org/1999/xlink">
    <!-- Generator: Sketch 47.1 (45422) - http://www.bohemiancoding.com/sketch -->
    <title>Page 1</title>
    <desc>Created with Sketch.</desc>
    <defs></defs>
    <g id="Page-1" stroke="none" stroke-width="1" fill="none" fill-rule="evenodd">
        <g id="INSCRIPTION-:-SPORT" transform="translate(-367.000000, -386.000000)" fill="#FFFFFF">
            <g id="Group-14" transform="translate(344.000000, 240.000000)">
                <g id="Page-1" transform="translate(23.000000, 146.000000)">
                    <path d="M32.3522167,15.0739262 C32.3522167,11.5057555 29.4177286,8.61386139 25.7946712,8.61386139 C22.1722863,8.61386139 19.2364532,11.5057555 19.2364532,15.0739262 C19.2364532,18.6427594 22.1722863,21.5346535 25.7946712,21.5346535 C29.4163837,21.5346535 32.3522167,18.6427594 32.3522167,15.0739262" id="Fill-1"></path>
                    <path d="M20.2526445,35.1095518 L15.5162593,35.1095518 C15.3045167,33.9602219 15.8481253,32.8035201 16.8749416,32.2211483 C23.6194889,28.3965267 29.5591425,23.3327733 34.3735739,17.3019744 C35.2958761,16.146613 36.5928001,15.3363856 38.0437804,15.0086758 C38.366145,14.9362982 38.5670291,14.6199811 38.4923762,14.3023238 C38.480839,14.250051 38.4625151,14.1997888 38.4353686,14.1522072 C35.2904468,8.42633252 29.0277499,5.06345341 22.4501535,5.57143715 C20.9109471,5.69005604 19.5665168,4.55278903 19.4450362,3.03352898 C19.3255916,1.51359877 20.4759245,0.185335239 22.0158095,0.0667163463 C22.2465548,0.048621939 22.479336,0.0345485111 22.7107599,0.0244960626 C35.0128739,-0.543802359 45.4500236,8.84518454 46.024172,20.9932335 C46.0323159,21.147371 46.0336733,21.3028489 46.0296013,21.4569864 C45.9223726,25.6374647 45.6027226,29.809901 45.0713299,33.9582114 C47.1548236,34.523159 49.2111708,35.1866206 51.2295129,35.9485962 C52.4992903,36.4264226 53.3374384,37.6300357 53.3374384,38.9723727 C53.3374384,40.7590279 51.8708489,42.2079208 50.0615348,42.2079208 L36.3688415,42.2079208 C34.5595274,42.2079208 33.0915805,40.7590279 33.0915805,38.9723727 C33.0915805,37.1843772 34.5595274,35.7361544 36.3688415,35.7361544 L44.8324407,35.7361544 L36.3688415,35.1082115 C34.2079802,35.1082115 32.4570312,36.8379028 32.4570312,38.9723727 C32.4570312,39.5379905 32.581905,40.0969066 32.8255449,40.6095815 C28.7535702,41.5210035 24.6049067,42.0557937 20.4318114,42.2052401 C20.392449,42.2079208 20.3524079,42.2079208 20.3116881,42.2079208 L3.27658226,42.2079208 C1.46658953,42.2079208 0,40.7590279 0,38.9723727 C0,37.1843772 1.46658953,35.7361544 3.27658226,35.7361544 L20.2526445,35.7361544 C24.1644548,35.5913992 28.0538693,35.0720227 31.8645588,34.1860669 C32.1903168,31.9316378 32.4475299,29.6678264 32.6348407,27.3973133 C29.6880884,30.195915 26.4868377,32.7197497 23.0697723,34.9373199 C22.1237169,35.0163991 21.1763041,35.073363 20.227534,35.1088817" id="Fill-3"></path>
                </g>
            </g>
        </g>
    </g>
</svg>