<?xml version="1.0" encoding="UTF-8"?>
<svg width="358px" height="69px" viewBox="0 0 358 69" version="1.1" xmlns="http://www.w3.org/2000/svg" xmlns:xlink="http://www.w3.org/1999/xlink">
    <!-- Generator: Sketch 47.1 (45422) - http://www.bohemiancoding.com/sketch -->
    <title>Page 1</title>
    <desc>Created with Sketch.</desc>
    <defs>
        <polygon id="path-1" points="42.9984169 7.13992459 0.291019277 7.13992459 0.291019277 0.314431295 42.9984169 0.314431295"></polygon>
        <polygon id="path-3" points="0.175546384 0.304819858 51.5870048 0.304819858 51.5870048 41.8163964 0.175546384 41.8163964 0.175546384 0.304819858"></polygon>
    </defs>
    <g id="Page-1" stroke="none" stroke-width="1" fill="none" fill-rule="evenodd">
        <g id="CONNEXION" transform="translate(-463.000000, -163.000000)">
            <g id="Group-2" transform="translate(259.000000, 163.000000)">
                <g id="Page-1" transform="translate(204.000000, 0.000000)">
                    <polygon id="Fill-1" fill="#FEFEFE" points="0 3 0 67 6.57618231 67 6.57618231 36.7174067 36.7167415 36.7174067 36.7167415 30.9325441 6.57618231 30.9325441 6.57618231 8.78540963 39 8.78540963 39 3"></polygon>
                    <polygon id="Fill-2" fill="#FEFEFE" points="50 67 57 67 57 3 50 3"></polygon>
                    <polygon id="Fill-3" fill="#FEFEFE" points="95.7307871 67 89.2692129 67 89.2692129 8.78536018 68 8.78536018 68 3 117 3 117 8.78536018 95.7307871 8.78536018"></polygon>
                    <g id="Group-62" transform="translate(128.000000, 0.000000)">
                        <path d="M53.4316048,56.3693202 C53.6649301,55.9837643 53.8483759,55.5586641 54.0434602,55.1434501 L4.82235181,58.9841803 L4.81071325,63.4515762 L50.6283759,59.8766708 C51.6963518,58.8408326 52.6396289,57.6803202 53.4316048,56.3693202" id="Fill-4" fill="#FEFEFE"></path>
                        <path d="M34.5083687,47.9510196 C33.4376217,48.7062039 32.0465373,49.0780292 30.338441,49.0736354 L23.8358145,49.0566094 L23.8585373,40.3453522 L29.4461518,40.3601813 C30.1167542,40.3618289 30.8328024,40.4244406 31.5976217,40.5469178 C32.3596699,40.6704934 33.0762723,40.9000694 33.7474289,41.233449 C34.4185855,41.567927 34.9816699,42.007307 35.4388988,42.5537858 C35.8950193,43.0997154 36.121694,43.7961327 36.1194771,44.6424884 C36.1155976,46.0946392 35.577453,47.1980321 34.5083687,47.9510196 L34.5083687,47.9510196 Z M23.9161759,18.5630899 L29.3203446,18.5773698 C31.028441,18.5817636 32.4017904,18.8882311 33.4381759,19.4951247 C34.4751157,20.103666 34.9916458,21.0126333 34.9888747,22.2220267 C34.984441,23.6741775 34.4922964,24.7479123 33.5146578,25.4399358 C32.5353566,26.1347054 31.2822723,26.477971 29.7570675,26.4741264 L23.8951157,26.4592973 L23.9161759,18.5630899 Z M58.0925133,47.3309446 C58.0980554,45.335061 57.7666337,43.5187741 57.0999108,41.8831821 C56.4315253,40.2486886 55.5198386,38.80917 54.3642964,37.5651754 C53.2065373,36.3233778 51.8969229,35.2897364 50.4337904,34.4697435 C48.9701036,33.6492014 47.4759349,33.05494 45.9507301,32.6880577 L45.9512843,32.4161913 C48.8237904,31.3342181 51.1337663,29.6772064 52.8789952,27.44241 C54.6247783,25.2087121 55.5026578,22.3659236 55.5120795,18.9173401 C55.5220554,15.2276467 54.705694,12.2448059 53.0629952,9.97156376 C51.4197422,7.69777239 49.3480795,5.96771374 46.8491157,4.78193703 C44.3473807,3.59506188 41.6184169,2.80253025 38.6583446,2.4010468 C35.6971639,2.00011257 32.9044651,1.79580088 30.2802482,1.78921018 L3.62906747,1.72000783 L3.49328434,53.1752475 L58.0043928,48.9204016 C58.0404169,48.396441 58.0914048,47.8829157 58.0925133,47.3309446 L58.0925133,47.3309446 Z" id="Fill-6" fill="#FEFEFE"></path>
                        <path d="M2.49885301,66.0512776 L32.8577446,66.0523761 C36.0317446,66.0606145 40.3801301,65.6536388 43.4033831,65.0253254 C46.4271904,64.3992089 49.1156964,63.3474431 51.4711181,61.8700279 C52.1899373,61.4191142 52.8516723,60.9116304 53.4856964,60.3755868 L2.50328675,64.3558202 L2.49885301,66.0512776 Z" id="Fill-8" fill="#FEFEFE"></path>
                        <path d="M56.7179446,49.744294 L0.513149398,54.1320523 L0.501510843,58.5999974 L55.6444265,54.2951721 C56.1908843,52.9259543 56.5450289,51.4062488 56.7179446,49.744294" id="Fill-10" fill="#FEFEFE"></path>
                        <polygon id="Fill-12" fill="#FEFEFE" points="90.5159735 56.7624554 124.065492 54.1437508 122.373467 49.8092673 59.6726964 54.703411 57.8254916 59.3141546 81.8225277 57.4412975 82.0625036 56.7404864"></polygon>
                        <polygon id="Fill-14" fill="#FEFEFE" points="130.856865 66.2167591 130.288793 64.7607637 111.150022 66.2552049"></polygon>
                        <polygon id="Fill-16" fill="#FEFEFE" points="54.6136386 66.2009414 79.6010602 66.1108685 80.5105301 63.4564643 54.9123614 65.4550939"></polygon>
                        <path d="M87.3265108,40.2377041 L92.6796916,24.3678486 L97.858294,40.2651654 L87.3265108,40.2377041 Z M104.645234,1.98198814 L81.4745349,1.9215734 L62.7907759,48.5463794 L121.046728,43.9993459 L104.645234,1.98198814 Z" id="Fill-18" fill="#FEFEFE"></path>
                        <polygon id="Fill-20" fill="#FEFEFE" points="124.597595 48.9118886 122.905017 44.576856 64.173547 49.161786 62.325788 53.7725296"></polygon>
                        <polygon id="Fill-22" fill="#FEFEFE" points="80.0794602 58.3009993 59.1106651 59.9365913 57.262906 64.5478841 78.507147 62.8903232"></polygon>
                        <path d="M126.474561,58.4487408 L126.6242,58.2883672 L125.252513,54.7744258 L99.4842,56.7856876 L102.66873,56.793926 L104.126875,60.8900458 L126.944537,59.1089093 L126.781043,58.6903998 C126.683501,58.6069176 126.570441,58.5333215 126.474561,58.4487408" id="Fill-24" fill="#FEFEFE"></path>
                        <polygon id="Fill-26" fill="#FEFEFE" points="127.50668 59.7885752 102.840149 61.7141579 104.387523 66.0601751 129.198149 64.1230586"></polygon>
                        <g id="Group-30" transform="translate(131.903614, 60.963972)">
                            <mask id="mask-2" fill="white">
                                <use xlink:href="#path-1"></use>
                            </mask>
                            <g id="Clip-29"></g>
                            <path d="M41.6101036,1.4760421 C42.0961518,1.11190595 42.5483928,0.714267072 42.9984169,0.314431295 L0.291019277,3.64987453 C1.1955012,4.05410411 2.10663373,4.45119376 3.05545301,4.80709154 C5.40311566,5.68420381 7.84388675,6.3526106 10.377212,6.81176267 C11.1791639,6.95675806 11.9938627,7.03969103 12.8046819,7.1401992 L33.6482241,5.51119795 C36.5761518,4.58355698 39.2375012,3.25058798 41.6101036,1.4760421" id="Fill-28" fill="#FEFEFE" mask="url(#mask-2)"></path>
                        </g>
                        <path d="M139.791451,44.184984 L136.225065,48.0048436 L143.831137,47.4111314 C142.232222,46.4263711 140.877161,45.3537347 139.791451,44.184984" id="Fill-31" fill="#FEFEFE"></path>
                        <path d="M158.557954,47.4956571 C158.554629,48.6473819 158.048629,49.4344213 157.041063,49.8545784 C156.03128,50.2785801 154.916749,50.4872855 153.696364,50.4839902 C151.007858,50.4768503 148.400267,49.8342571 145.870267,48.557309 C145.544942,48.3930907 145.251207,48.2173388 144.943063,48.0476282 L133.143786,48.9692277 L128.645761,53.7870292 L177.43181,49.9792525 C177.695617,48.562252 177.863545,47.0837384 177.867978,45.4992244 C177.867978,45.4920845 177.86687,45.486043 177.86687,45.4783538 L158.483135,46.9909194 C158.513617,47.1562361 158.558508,47.3138637 158.557954,47.4956571" id="Fill-33" fill="#FEFEFE"></path>
                        <path d="M131.092851,59.5075367 C132.317116,60.4467114 133.603453,61.3457927 135.030561,62.1575472 C135.850248,62.6243884 136.709284,63.0489393 137.5722,63.4685472 L172.299429,60.7597697 C173.708248,59.3685828 174.925308,57.7857165 175.94673,56.0084245 L131.092851,59.5075367 Z" id="Fill-35" fill="#FEFEFE"></path>
                        <path d="M156.275634,44.6263961 C157.128573,45.0822528 157.723248,45.5232804 158.057995,45.9478313 C158.137802,46.0499872 158.177152,46.174112 158.238116,46.2861539 L179.709586,44.6110178 C179.659706,43.0067316 179.439682,41.5348087 179.046188,40.1957982 L150.744549,42.4047811 C151.470019,42.6563261 152.151706,42.8963374 152.75414,43.1171258 C154.2472,43.6669 155.421031,44.1705393 156.275634,44.6263961" id="Fill-37" fill="#FEFEFE"></path>
                        <g id="Group-41" transform="translate(130.240964, 0.000000)">
                            <mask id="mask-4" fill="white">
                                <use xlink:href="#path-3"></use>
                            </mask>
                            <g id="Clip-40"></g>
                            <path d="M48.2184747,36.9337864 C46.8196313,34.6929485 45.0383783,32.7959255 42.8752699,31.2471111 C40.7116072,29.6993951 38.3495349,28.4378253 35.7879446,27.4624018 C33.2263542,26.4886259 30.7861373,25.6351303 28.4678482,24.901915 C26.2105229,24.1703473 24.5794627,23.5623553 23.5724506,23.0751928 C22.5671012,22.5885794 22.0649807,21.8608563 22.0671976,20.8925727 C22.0699687,19.8649728 22.5598964,19.1246176 23.5391976,18.6720562 C24.5157277,18.2211425 25.7981855,17.9981571 27.3865711,18.0025509 C29.0957759,18.0069447 31.0172458,18.4803767 33.1531976,19.4239452 C35.2869325,20.3675137 37.084812,21.7482652 38.5457277,23.5672983 L51.5842337,10.4523553 L51.5870048,9.43848601 C48.3598,6.5786716 44.6681614,4.34717055 40.4777277,2.78901931 C36.0550771,1.14354131 31.7066916,0.315859279 27.4336795,0.30487478 C24.2585711,0.296087181 21.0518723,0.682192333 17.8152458,1.46209179 C14.5758482,2.24199124 11.656788,3.52168542 9.05861928,5.30392044 C6.4571253,7.08560624 4.33059518,9.36928366 2.6751494,12.1522066 C1.0191494,14.9362279 0.186161446,18.3287906 0.175631325,22.3276976 C0.168426506,25.1776259 0.619559036,27.6183817 1.52958313,29.6516125 C2.43960723,31.6848434 3.67163133,33.4297311 5.2251012,34.8879234 C6.77857108,36.3466649 8.56093253,37.5796749 10.573294,38.5847566 C12.584547,39.5909368 14.6889084,40.4609091 16.8852699,41.1919276 C17.5514386,41.4094207 18.1749325,41.61538 18.7745952,41.8163964 L49.3684747,39.4283662 C49.0558964,38.5419171 48.6928843,37.6950122 48.2184747,36.9337864" id="Fill-39" fill="#FEFEFE" mask="url(#mask-4)"></path>
                        </g>
                        <path d="M126.623923,58.2886418 L126.780766,58.6901252 C126.939272,58.826333 127.116622,58.9499086 127.279007,59.0828211 L176.978405,55.2041943 C177.716067,53.7899401 178.27361,52.2597993 178.641055,50.6077306 L130.27067,54.3825538 L126.623923,58.2886418 Z" id="Fill-42" fill="#FEFEFE"></path>
                        <path d="M126.474561,58.4487408 C126.570441,58.5333215 126.683501,58.6069176 126.781043,58.6903998 L126.6242,58.2883672 L126.474561,58.4487408 Z" id="Fill-44" fill="#FEFEFE"></path>
                        <polygon id="Fill-46" fill="#FEFEFE" points="182.847173 59.9352731 228.919776 56.3394973 228.93086 51.8715522 182.858812 55.467328"></polygon>
                        <polygon id="Fill-48" fill="#FEFEFE" points="181.67761 66.4377123 228.892453 66.4745104 228.904092 62.2537165 181.678718 65.9401145"></polygon>
                        <polygon id="Fill-50" fill="#FEFEFE" points="179.087255 65.4199984 226.792581 61.6957039 226.804219 57.2277588 179.098894 60.9526026"></polygon>
                        <polygon id="Fill-52" fill="#FEFEFE" points="184.567186 44.9536243 184.555547 49.4210202 203.298607 47.9589833 203.309692 43.4915874"></polygon>
                        <polygon id="Fill-54" fill="#FEFEFE" points="180.939337 54.8945962 229.749217 51.0840734 229.756422 48.4417521 205.254494 48.5301773 180.950976 50.4272003"></polygon>
                        <polygon id="Fill-56" fill="#FEFEFE" points="183.176267 44.3394809 202.255737 42.8510813 202.256292 42.5314323 206.215617 42.5418676 223.584219 41.1863804 223.596412 36.7189845 183.187906 39.872085"></polygon>
                        <path d="M181.825364,10.4524651 L181.748882,39.2615116 L224.895219,35.8936641 L224.921822,25.8005569 L202.300352,25.7417898 L202.315316,20.2050529 L226.401027,20.2671153 L226.448689,2.29702359 L181.846978,2.18168634 L181.828135,9.43859585 C182.006593,9.59677264 182.201123,9.73517734 182.37681,9.89774793 L181.825364,10.4524651 Z" id="Fill-58" fill="#FEFEFE"></path>
                        <path d="M182.376865,9.89758316 C182.201178,9.73501257 182.006648,9.5971571 181.82819,9.43843109 L181.825419,10.4523004 L182.376865,9.89758316 Z" id="Fill-60" fill="#FEFEFE"></path>
                    </g>
                </g>
            </g>
        </g>
    </g>
</svg>