<?xml version="1.0" encoding="UTF-8"?>
<svg width="50px" height="33px" viewBox="0 0 50 33" version="1.1" xmlns="http://www.w3.org/2000/svg" xmlns:xlink="http://www.w3.org/1999/xlink">
    <!-- Generator: Sketch 47.1 (45422) - http://www.bohemiancoding.com/sketch -->
    <title>LOGO</title>
    <desc>Created with Sketch.</desc>
    <defs></defs>
    <g id="Page-1" stroke="none" stroke-width="1" fill="none" fill-rule="evenodd">
        <g id="INSCRIPTION-:-MENSURATION" transform="translate(-24.000000, -21.000000)" fill="#FEFEFE">
            <g id="LOGO" transform="translate(24.000000, 21.000000)">
                <polygon id="Fill-1" points="0 0 0 32 3.37249066 32 3.37249066 16.8588195 18.8287141 16.8588195 18.8287141 13.9661719 3.37249066 13.9661719 3.37249066 2.89264757 20 2.89264757 20 0"></polygon>
                <g id="Group-11" transform="translate(20.000000, 0.000000)">
                    <path d="M27.3879579,28.0694364 C27.5050711,27.8731144 27.5973674,27.6566568 27.6957983,27.4452331 L2.93138054,29.4009025 L2.92552488,31.6756653 L25.9775806,29.8553517 C26.5146282,29.327911 26.9892154,28.7369873 27.3879579,28.0694364" id="Fill-2"></path>
                    <g id="Group-6" transform="translate(1.935484, 0.000000)">
                        <path d="M15.931591,23.7829042 C15.3928704,24.1674381 14.6932586,24.3567686 13.8335921,24.3545314 L10.561673,24.3458619 L10.5733844,19.9101585 L13.3843794,19.9177093 C13.7220558,19.9185483 14.0823182,19.9504297 14.4668398,20.0127941 C14.8505249,20.0757178 15.2110662,20.1926161 15.5487425,20.3623703 C15.8864188,20.5326839 16.1697212,20.7564127 16.3997649,21.0346754 C16.6295298,21.3126585 16.7432969,21.6672686 16.7421815,22.0982263 C16.7402296,22.83765 16.469754,23.399489 15.931591,23.7829042 L15.931591,23.7829042 Z M10.6023838,8.81880254 L13.3213614,8.82607373 C14.180749,8.82831102 14.8717168,8.98436186 15.3931493,9.29338729 C15.9148606,9.60325169 16.1747403,10.0660907 16.1730672,10.6819042 C16.1711154,11.421328 15.9235046,11.9680653 15.4313505,12.3207178 C14.9389174,12.6742093 14.3084582,12.8489975 13.541088,12.8470398 L10.5920667,12.839489 L10.6023838,8.81880254 Z M27.7976654,23.4671669 C27.800175,22.4508788 27.6337069,21.5260398 27.2982613,20.6932093 C26.9617004,19.8609381 26.5030071,19.1279466 25.9216238,18.4945144 C25.3391252,17.8622008 24.680503,17.3358788 23.9440842,16.9183449 C23.2076654,16.5005314 22.4556315,16.1979381 21.6885402,16.0111246 L21.688819,15.8726924 C23.1337726,15.3217602 24.2962603,14.4780229 25.1740514,13.3400822 C26.0529579,12.2027008 26.4946419,10.7551754 26.4988245,8.9991839 C26.5038436,7.12042119 26.0933898,5.6015822 25.2669054,4.44406525 C24.440421,3.28626864 23.3978349,2.40533644 22.1408201,1.80154831 C20.8818535,1.19720085 19.5085621,0.79365 18.0195517,0.589217797 C16.5297048,0.385344915 15.1246255,0.281031356 13.8043138,0.277675424 L0.395412794,0.242438136 L0.327096774,26.4430398 L27.7530508,24.2765059 C27.7714543,24.0097093 27.7968289,23.7482263 27.7976654,23.4671669 L27.7976654,23.4671669 Z" id="Fill-4"></path>
                    </g>
                    <path d="M1.762117,32.9995525 L17.0367425,32.9998322 C18.6336643,33.0040271 20.8211711,32.7967983 22.3425271,32.4771458 C23.863883,32.1583322 25.2165402,31.6227814 26.4013352,30.8704932 C26.7632706,30.6408915 27.0959278,30.3822051 27.4152007,30.1095356 L1.76462657,32.136239 L1.762117,32.9995525 Z" id="Fill-7"></path>
                    <path d="M29.0411219,24.6960254 L0.763308912,26.9302373 L0.757174412,29.2052797 L28.5010071,27.0132966 C28.7762231,26.3161017 28.9541236,25.5422797 29.0411219,24.6960254" id="Fill-9"></path>
                </g>
            </g>
        </g>
    </g>
</svg>