<?xml version="1.0" encoding="UTF-8"?>
<svg width="16px" height="15px" viewBox="0 0 16 15" version="1.1" xmlns="http://www.w3.org/2000/svg" xmlns:xlink="http://www.w3.org/1999/xlink">
    <!-- Generator: Sketch 47.1 (45422) - http://www.bohemiancoding.com/sketch -->
    <title>Fill 143</title>
    <desc>Created with Sketch.</desc>
    <defs></defs>
    <g id="Page-1" stroke="none" stroke-width="1" fill="none" fill-rule="evenodd">
        <g id="PROFIL" transform="translate(-40.000000, -719.000000)" fill="#FFFFFF">
            <path d="M53.7002,726.7186 L53.2002,724.5196 L55.2002,723.4186 C54.7032,722.4066 53.9852,721.5176 53.1002,720.8196 L51.6002,722.4186 L49.4002,721.4186 L49.8002,719.2186 C48.6482,718.9516 47.4512,718.9516 46.3002,719.2186 L46.7002,721.3196 L44.5002,722.3196 L43.0002,720.7186 C42.1122,721.4416 41.3662,722.3226 40.8002,723.3196 L42.8002,724.3196 L42.3002,726.5196 L40.0002,726.6186 C40.0162,727.7336 40.2902,728.8276 40.8002,729.8196 L42.9002,728.9186 L44.4002,730.7186 L43.1002,732.5196 C44.0082,733.2246 45.0702,733.7036 46.2002,733.9186 L46.8002,731.8196 L49.2002,731.8196 L49.8002,733.9186 C50.9222,733.6806 51.9792,733.2026 52.9002,732.5196 L51.5002,730.7186 L53.0002,728.9186 L55.1002,729.7186 C55.6212,728.7326 55.8962,727.6346 55.9002,726.5196 L53.7002,726.7186 Z M48.0002,729.0196 C46.7312,728.9636 45.7472,727.8906 45.8022,726.6206 C45.8572,725.3526 46.9312,724.3676 48.2002,724.4236 C49.4292,724.4766 50.3992,725.4886 50.4002,726.7186 C50.3742,728.0156 49.3022,729.0456 48.0052,729.0196 L48.0002,729.0196 Z" id="Fill-143"></path>
        </g>
    </g>
</svg>