<?xml version="1.0" encoding="UTF-8"?>
<svg width="13px" height="15px" viewBox="0 0 13 15" version="1.1" xmlns="http://www.w3.org/2000/svg" xmlns:xlink="http://www.w3.org/1999/xlink">
    <!-- Generator: Sketch 47.1 (45422) - http://www.bohemiancoding.com/sketch -->
    <title>Group 28</title>
    <desc>Created with Sketch.</desc>
    <defs></defs>
    <g id="Page-1" stroke="none" stroke-width="1" fill="none" fill-rule="evenodd">
        <g id="PROFIL" transform="translate(-41.000000, -518.000000)" fill="#F1E639">
            <g id="Group-28" transform="translate(41.000000, 518.000000)">
                <path d="M13,15.0001337 L13,12.6001337 C12.961,10.5891337 11.312,8.98313372 9.3,9.00013372 L3.7,9.00013372 C1.688,8.98313372 0.039,10.5891337 0,12.6001337 L0,15.0001337 L13,15.0001337 Z" id="Fill-138"></path>
                <path d="M10.0362331,3.50599132 C10.3322331,5.71499132 8.78123306,7.74599132 6.57223306,8.04199132 C4.36323306,8.33799132 2.33123306,6.78699132 2.03623306,4.57799132 C1.74023306,2.36799132 3.29023306,0.337991322 5.50023306,0.0419913219 C5.67823306,0.0179913219 5.85723306,0.00599132188 6.03623306,0.00599132188 C8.09923306,-0.109008678 9.87623306,1.44499132 10.0362331,3.50599132" id="Fill-139"></path>
            </g>
        </g>
    </g>
</svg>