<?xml version="1.0" encoding="UTF-8"?>
<svg width="16px" height="14px" viewBox="0 0 16 14" version="1.1" xmlns="http://www.w3.org/2000/svg" xmlns:xlink="http://www.w3.org/1999/xlink">
    <!-- Generator: Sketch 47.1 (45422) - http://www.bohemiancoding.com/sketch -->
    <title>Fill 144</title>
    <desc>Created with Sketch.</desc>
    <defs></defs>
    <g id="Page-1" stroke="none" stroke-width="1" fill="none" fill-rule="evenodd">
        <g id="PROFIL" transform="translate(-40.000000, -80.000000)" fill="#FFFFFF">
            <path d="M55.6001,86.0189 C55.0001,87.3189 53.9001,88.1189 52.6001,89.2189 C51.1631,90.3039 49.8851,91.5819 48.8001,93.0189 C48.6221,93.1519 48.3781,93.1519 48.2001,93.0189 C47.1081,91.5549 45.7921,90.2719 44.3001,89.2189 C43.7241,88.8029 43.1881,88.3339 42.7001,87.8189 C42.0371,87.2509 41.5221,86.5299 41.2001,85.7189 C40.9871,85.1439 40.8851,84.5329 40.9001,83.9189 C40.9001,82.9099 41.2951,81.9409 42.0001,81.2189 C42.7611,80.5109 43.7611,80.1179 44.8001,80.1189 C46.2121,80.1229 47.5281,80.8369 48.3001,82.0189 C49.2891,80.4949 51.1391,79.7709 52.9001,80.2189 C54.5831,80.6029 55.7831,82.0929 55.8001,83.8189 C56.0001,83.9189 56.0001,85.1189 55.6001,86.0189" id="Fill-144"></path>
        </g>
    </g>
</svg>