<?xml version="1.0" encoding="UTF-8"?>
<svg width="16px" height="18px" viewBox="0 0 16 18" version="1.1" xmlns="http://www.w3.org/2000/svg" xmlns:xlink="http://www.w3.org/1999/xlink">
    <!-- Generator: Sketch 47.1 (45422) - http://www.bohemiancoding.com/sketch -->
    <title>Group 27</title>
    <desc>Created with Sketch.</desc>
    <defs></defs>
    <g id="Page-1" stroke="none" stroke-width="1" fill="none" fill-rule="evenodd">
        <g id="PROFIL" transform="translate(-41.000000, -280.000000)" fill="#FFFFFF">
            <g id="Group-27" transform="translate(41.000000, 280.000000)">
                <path d="M10.2002,3.9188 C9.1762,3.5058 8.6802,2.3408 9.0932,1.3158 C9.5062,0.2918 10.6712,-0.2042 11.6962,0.2098 C12.7202,0.6228 13.2162,1.7878 12.8032,2.8118 L12.8002,2.8188 C12.4752,3.8028 11.4142,4.3368 10.4302,4.0128 C10.3512,3.9858 10.2752,3.9558 10.2002,3.9188" id="Fill-132"></path>
                <path d="M16,7.5189 C15.885,7.1849 15.551,6.9759 15.2,7.0189 C15,7.1189 13.8,7.4189 13,7.6189 C12.989,7.5429 12.955,7.4729 12.9,7.4189 C12.6,6.6189 12.1,5.3189 11,4.9189 C10.7,4.8189 10.2,4.6189 9.7,4.4189 C8.1,3.7189 5.3,4.5189 4.9,4.6189 C4.7,4.7189 4.3,4.8189 3.1,7.1189 C2.943,7.4509 3.076,7.8479 3.4,8.0189 C3.48,8.0959 3.59,8.1329 3.7,8.1189 C3.972,8.1549 4.228,7.9839 4.3,7.7189 C4.644,7.0519 5.045,6.4159 5.5,5.8189 C6.058,5.6739 6.626,5.5739 7.2,5.5189 C6.657,6.2539 6.219,7.0619 5.9,7.9189 C5.806,8.1439 5.739,8.3789 5.7,8.6189 C5.3,9.8189 4.5,12.0189 4.4,12.4189 C3.328,12.3919 2.259,12.2919 1.2,12.1189 C0.785,11.9979 0.35,12.2369 0.229,12.6519 C0.214,12.7059 0.204,12.7629 0.2,12.8189 C0.137,13.2839 0.442,13.7189 0.9,13.8189 C1.56,13.9429 2.229,14.0099 2.9,14.0189 C3.362,14.0989 3.831,14.1319 4.3,14.1189 C4.899,14.1939 5.498,13.9699 5.9,13.5189 C6,13.3189 6.8,11.8189 7.3,10.7189 C8.095,11.2109 8.862,11.7459 9.6,12.3189 C9.311,13.5739 8.943,14.8099 8.5,16.0189 C8.374,16.4869 8.638,16.9719 9.1,17.1189 L9.4,17.1189 C9.779,17.1469 10.121,16.8909 10.2,16.5189 C10.756,15.0919 11.191,13.6199 11.5,12.1189 C11.5,11.4189 10.8,10.9189 9.4,9.9189 C9.913,8.7229 10.55,7.5829 11.3,6.5189 C11.541,6.9329 11.742,7.3679 11.9,7.8189 C12,8.2829 12.245,8.7039 12.6,9.0189 C12.778,9.1519 13.022,9.1519 13.2,9.0189 C13.5,8.9189 14.9,8.5189 15.8,8.3189 C15.8,8.2189 16.1,7.9189 16,7.5189" id="Fill-134"></path>
            </g>
        </g>
    </g>
</svg>