<?xml version="1.0" encoding="UTF-8"?>
<svg width="149px" height="150px" viewBox="0 0 149 150" version="1.1" xmlns="http://www.w3.org/2000/svg" xmlns:xlink="http://www.w3.org/1999/xlink">
    <!-- Generator: Sketch 47.1 (45422) - http://www.bohemiancoding.com/sketch -->
    <title>Group 7</title>
    <desc>Created with Sketch.</desc>
    <defs></defs>
    <g id="Page-1" stroke="none" stroke-width="1" fill="none" fill-rule="evenodd" opacity="0.362262228">
        <g id="INSCRIPTION-:-SPORT" transform="translate(-344.000000, -240.000000)" fill="#FFFFFF">
            <g id="Group-9" transform="translate(344.000000, 240.000000)">
                <g id="Group-7">
                    <polygon id="Fill-32" points="6.14545455 0 6.14545455 6.27371134 0 6.27371134 0 7.84175258 6.14545455 7.84175258 6.14545455 14.1154639 7.68333333 14.1154639 7.68333333 7.84175258 13.830303 7.84175258 13.830303 6.27371134 7.68333333 6.27371134 7.68333333 0"></polygon>
                    <polygon id="Fill-32-Copy-2" points="6.14545455 135.210309 6.14545455 141.484021 0 141.484021 0 143.052062 6.14545455 143.052062 6.14545455 149.325773 7.68333333 149.325773 7.68333333 143.052062 13.830303 143.052062 13.830303 141.484021 7.68333333 141.484021 7.68333333 135.210309"></polygon>
                    <polygon id="Fill-32-Copy" points="140.993939 0 140.993939 6.27371134 134.848485 6.27371134 134.848485 7.84175258 140.993939 7.84175258 140.993939 14.1154639 142.531818 14.1154639 142.531818 7.84175258 148.678788 7.84175258 148.678788 6.27371134 142.531818 6.27371134 142.531818 0"></polygon>
                    <polygon id="Fill-32-Copy-3" points="140.993939 135.210309 140.993939 141.484021 134.848485 141.484021 134.848485 143.052062 140.993939 143.052062 140.993939 149.325773 142.531818 149.325773 142.531818 143.052062 148.678788 143.052062 148.678788 141.484021 142.531818 141.484021 142.531818 135.210309"></polygon>
                </g>
            </g>
        </g>
    </g>
</svg>