<?xml version="1.0" encoding="utf-8"?>
<!-- Generator: Adobe Illustrator 22.0.1, SVG Export Plug-In . SVG Version: 6.00 Build 0)  -->
<svg version="1.1" id="Calque_1" xmlns="http://www.w3.org/2000/svg" xmlns:xlink="http://www.w3.org/1999/xlink" x="0px" y="0px"
	 viewBox="0 0 687.2 1389.9" style="enable-background:new 0 0 687.2 1389.9;" xml:space="preserve">
<style type="text/css">
	.st0{fill:#2C3444;}
</style>
<path class="st0" d="M560.7,282.5c-2.9,0-5.9-1.1-8.1-3.4L339.9,66.5L133.7,272.7c-4.5,4.5-11.8,4.5-16.3,0
	c-4.5-4.5-4.5-11.8,0-16.3L331.8,42.1c4.5-4.5,11.8-4.5,16.3,0l220.8,220.8c4.5,4.5,4.5,11.8,0,16.3
	C566.6,281.3,563.7,282.5,560.7,282.5z"/>
<path class="st0" d="M346.3,1354c-3,0-6-1.2-8.1-3.4l-220.8-220.8c-4.5-4.5-4.5-11.8,0-16.3c4.5-4.5,11.8-4.5,16.3,0l212.6,212.6
	L552.6,1120c4.5-4.5,11.8-4.5,16.3,0c4.5,4.5,4.5,11.8,0,16.3l-214.4,214.4C352.3,1352.8,349.3,1354,346.3,1354z"/>
</svg>
